<svg xmlns="http://www.w3.org/2000/svg"
     height="450"
     width="840"
     viewBox="-75 -325 840 450">
   <line x1="0"
         x2="740"
         y1="-75"
         y2="-75"
         stroke="gray"
         stroke-dasharray="3"/>
   <text x="-5"
         y="-75"
         dominant-baseline="middle"
         text-anchor="end"
         font-size="10">25</text>
   <line x1="0"
         x2="740"
         y1="-150"
         y2="-150"
         stroke="gray"
         stroke-dasharray="3"/>
   <text x="-5"
         y="-150"
         dominant-baseline="middle"
         text-anchor="end"
         font-size="10">50</text>
   <line x1="0"
         x2="740"
         y1="-225"
         y2="-225"
         stroke="gray"
         stroke-dasharray="3"/>
   <text x="-5"
         y="-225"
         dominant-baseline="middle"
         text-anchor="end"
         font-size="10">75</text>
   <line x1="0"
         x2="740"
         y1="-300"
         y2="-300"
         stroke="gray"
         stroke-dasharray="3"/>
   <text x="-5"
         y="-300"
         dominant-baseline="middle"
         text-anchor="end"
         font-size="10">100</text>
   <text x="30" y="13" text-anchor="middle" font-size="smaller">allusion</text>
   <rect x="0" y="-9" width="20" height="9" fill="#03AC13"/>
   <text x="10" y="-12" font-size="smaller" text-anchor="middle">3</text>
   <rect x="20" y="-6" width="20" height="6" fill="#5DBB63"/>
   <text x="30" y="-9" font-size="smaller" text-anchor="middle">2</text>
   <rect x="40" y="-9" width="20" height="9" fill="#466D1D"/>
   <text x="50" y="-12" font-size="smaller" text-anchor="middle">3</text>
   <text x="110" y="13" text-anchor="middle" font-size="smaller">amplification</text>
   <rect x="80" y="-99" width="20" height="99" fill="#03AC13"/>
   <text x="90" y="-102" font-size="smaller" text-anchor="middle">33</text>
   <rect x="100" y="-72" width="20" height="72" fill="#5DBB63"/>
   <text x="110" y="-75" font-size="smaller" text-anchor="middle">24</text>
   <rect x="120" y="-87" width="20" height="87" fill="#466D1D"/>
   <text x="130" y="-90" font-size="smaller" text-anchor="middle">29</text>
   <text x="190" y="13" text-anchor="middle" font-size="smaller">comparison</text>
   <rect x="160" y="-36" width="20" height="36" fill="#03AC13"/>
   <text x="170" y="-39" font-size="smaller" text-anchor="middle">12</text>
   <rect x="180" y="-27" width="20" height="27" fill="#5DBB63"/>
   <text x="190" y="-30" font-size="smaller" text-anchor="middle">9</text>
   <rect x="200" y="-45" width="20" height="45" fill="#466D1D"/>
   <text x="210" y="-48" font-size="smaller" text-anchor="middle">15</text>
   <text x="270" y="13" text-anchor="middle" font-size="smaller">emph</text>
   <rect x="240" y="-0" width="20" height="0" fill="#03AC13"/>
   <text x="250" y="-3" font-size="smaller" text-anchor="middle">0</text>
   <rect x="260" y="-264" width="20" height="264" fill="#5DBB63"/>
   <text x="270" y="-267" font-size="smaller" text-anchor="middle">88</text>
   <rect x="280" y="-213" width="20" height="213" fill="#466D1D"/>
   <text x="290" y="-216" font-size="smaller" text-anchor="middle">71</text>
   <text x="350" y="13" text-anchor="middle" font-size="smaller">imagery</text>
   <rect x="320" y="-54" width="20" height="54" fill="#03AC13"/>
   <text x="330" y="-57" font-size="smaller" text-anchor="middle">18</text>
   <rect x="340" y="-30" width="20" height="30" fill="#5DBB63"/>
   <text x="350" y="-33" font-size="smaller" text-anchor="middle">10</text>
   <rect x="360" y="-63" width="20" height="63" fill="#466D1D"/>
   <text x="370" y="-66" font-size="smaller" text-anchor="middle">21</text>
   <text x="430" y="13" text-anchor="middle" font-size="smaller">irony</text>
   <rect x="400" y="-0" width="20" height="0" fill="#03AC13"/>
   <text x="410" y="-3" font-size="smaller" text-anchor="middle">0</text>
   <rect x="420" y="-18" width="20" height="18" fill="#5DBB63"/>
   <text x="430" y="-21" font-size="smaller" text-anchor="middle">6</text>
   <rect x="440" y="-0" width="20" height="0" fill="#466D1D"/>
   <text x="450" y="-3" font-size="smaller" text-anchor="middle">0</text>
   <text x="510" y="13" text-anchor="middle" font-size="smaller">repetition</text>
   <rect x="480" y="-99" width="20" height="99" fill="#03AC13"/>
   <text x="490" y="-102" font-size="smaller" text-anchor="middle">33</text>
   <rect x="500" y="-102" width="20" height="102" fill="#5DBB63"/>
   <text x="510" y="-105" font-size="smaller" text-anchor="middle">34</text>
   <rect x="520" y="-105" width="20" height="105" fill="#466D1D"/>
   <text x="530" y="-108" font-size="smaller" text-anchor="middle">35</text>
   <text x="590" y="13" text-anchor="middle" font-size="smaller">rhetoricalQuestion</text>
   <rect x="560" y="-15" width="20" height="15" fill="#03AC13"/>
   <text x="570" y="-18" font-size="smaller" text-anchor="middle">5</text>
   <rect x="580" y="-39" width="20" height="39" fill="#5DBB63"/>
   <text x="590" y="-42" font-size="smaller" text-anchor="middle">13</text>
   <rect x="600" y="-30" width="20" height="30" fill="#466D1D"/>
   <text x="610" y="-33" font-size="smaller" text-anchor="middle">10</text>
   <line x1="0"
         x2="740"
         y1="0"
         y2="0"
         stroke="black"
         stroke-width="1"
         stroke-linecap="square"/>
   <line x1="0"
         x2="0"
         y1="0"
         y2="-300"
         stroke="black"
         stroke-width="1"
         stroke-linecap="square"/>
   <text x="370" y="50" text-anchor="middle" font-size="x-large">Device</text>
   <text x="-50"
         y="-150"
         text-anchor="middle"
         writing-mode="tb"
         font-size="x-large">Count of Device</text>
   <text x="370" y="90" text-anchor="middle" font-size="xx-large">Instances of Rhetorical Devices by Text</text>
</svg>
