<svg xmlns="http://www.w3.org/2000/svg"
     height="450"
     width="2520"
     viewBox="-75 -325 2520 450">
   <text x="30" y="13" text-anchor="middle" font-size="smaller">allusion</text>
   <rect x="0" y="-9" width="20" height="9" fill="purple"/>
   <rect x="20" y="-6" width="20" height="6" fill="red"/>
   <rect x="40" y="-9" width="20" height="9" fill="blue"/>
   <text x="110" y="13" text-anchor="middle" font-size="smaller">amplification</text>
   <rect x="80" y="-99" width="20" height="99" fill="purple"/>
   <rect x="100" y="-72" width="20" height="72" fill="red"/>
   <rect x="120" y="-87" width="20" height="87" fill="blue"/>
   <text x="190" y="13" text-anchor="middle" font-size="smaller">comparison</text>
   <rect x="160" y="-36" width="20" height="36" fill="purple"/>
   <rect x="180" y="-27" width="20" height="27" fill="red"/>
   <rect x="200" y="-45" width="20" height="45" fill="blue"/>
   <text x="270" y="13" text-anchor="middle" font-size="smaller">emph</text>
   <rect x="240" y="-0" width="20" height="0" fill="purple"/>
   <rect x="260" y="-264" width="20" height="264" fill="red"/>
   <rect x="280" y="-213" width="20" height="213" fill="blue"/>
   <text x="350" y="13" text-anchor="middle" font-size="smaller">imagery</text>
   <rect x="320" y="-54" width="20" height="54" fill="purple"/>
   <rect x="340" y="-30" width="20" height="30" fill="red"/>
   <rect x="360" y="-63" width="20" height="63" fill="blue"/>
   <text x="430" y="13" text-anchor="middle" font-size="smaller">irony</text>
   <rect x="400" y="-0" width="20" height="0" fill="purple"/>
   <rect x="420" y="-18" width="20" height="18" fill="red"/>
   <rect x="440" y="-0" width="20" height="0" fill="blue"/>
   <text x="510" y="13" text-anchor="middle" font-size="smaller">repetition</text>
   <rect x="480" y="-99" width="20" height="99" fill="purple"/>
   <rect x="500" y="-102" width="20" height="102" fill="red"/>
   <rect x="520" y="-105" width="20" height="105" fill="blue"/>
   <text x="590" y="13" text-anchor="middle" font-size="smaller">rhetoricalQuestion</text>
   <rect x="560" y="-15" width="20" height="15" fill="purple"/>
   <rect x="580" y="-39" width="20" height="39" fill="red"/>
   <rect x="600" y="-30" width="20" height="30" fill="blue"/>
   <line x1="0"
         x2="2420"
         y1="-150"
         y2="-150"
         stroke="lightgray"
         stroke-dasharray="8 4"
         stroke-width="1"/>
   <line x1="0"
         x2="2420"
         y1="0"
         y2="0"
         stroke="black"
         stroke-width="1"
         stroke-linecap="square"/>
   <line x1="0"
         x2="0"
         y1="0"
         y2="-300"
         stroke="black"
         stroke-width="1"
         stroke-linecap="square"/>
   <text x="-5" y="0" text-anchor="end" dominant-baseline="middle">0</text>
   <text x="-5" y="-150" text-anchor="end" dominant-baseline="middle">50%</text>
   <text x="-5" y="-300" text-anchor="end" dominant-baseline="middle">100%</text>
   <text x="1210" y="50" text-anchor="middle" font-size="x-large">Device</text>
   <text x="-50"
         y="-150"
         text-anchor="middle"
         writing-mode="tb"
         font-size="x-large">Count of Device</text>
   <text x="1210" y="90" text-anchor="middle" font-size="xx-large">Instances of Rhetorical Devices by Text</text>
</svg>
