<svg xmlns="http://www.w3.org/2000/svg"
     preserveAspectRatio="xMinYMin meet"
     viewBox="-800 -800 1600 1600"
     width="100%"
     height="100%">
   <text x="88"
         y="-676"
         text-anchor="middle"
         font-size="50"
         font-weight="bold">
                        Surah </text>
   <line x1="42.06267664155906"
         y1="27.032040872779877"
         x2="420.6267664155906"
         y2="270.3204087277988"
         stroke="black"/>
   <text x="44"
         y="0"
         dominant-baseline="middle"
         text-anchor="end"
         font-size="10">5</text>
   <line x1="20.77075065009432"
         y1="45.48159976772592"
         x2="207.70750650094323"
         y2="454.8159976772592"
         stroke="black"/>
   <text x="88"
         y="0"
         dominant-baseline="middle"
         text-anchor="end"
         font-size="10">10</text>
   <line x1="-7.1157419136642615"
         y1="49.491072094046636"
         x2="-71.15741913664262"
         y2="494.9107209404663"
         stroke="black"/>
   <text x="132"
         y="0"
         dominant-baseline="middle"
         text-anchor="end"
         font-size="10">15</text>
   <line x1="-32.74303669726425"
         y1="37.78747871771292"
         x2="-327.4303669726425"
         y2="377.8747871771292"
         stroke="black"/>
   <text x="176"
         y="0"
         dominant-baseline="middle"
         text-anchor="end"
         font-size="10">20</text>
   <line x1="-47.97464868072486"
         y1="14.086627842071502"
         x2="-479.74648680724863"
         y2="140.86627842071502"
         stroke="black"/>
   <text x="220"
         y="0"
         dominant-baseline="middle"
         text-anchor="end"
         font-size="10">25</text>
   <line x1="-47.97464868072487"
         y1="-14.086627842071492"
         x2="-479.7464868072487"
         y2="-140.8662784207149"
         stroke="black"/>
   <text x="264"
         y="0"
         dominant-baseline="middle"
         text-anchor="end"
         font-size="10">30</text>
   <line x1="-32.74303669726426"
         y1="-37.78747871771291"
         x2="-327.4303669726426"
         y2="-377.87478717712906"
         stroke="black"/>
   <text x="308"
         y="0"
         dominant-baseline="middle"
         text-anchor="end"
         font-size="10">35</text>
   <line x1="-7.1157419136642615"
         y1="-49.491072094046636"
         x2="-71.15741913664262"
         y2="-494.9107209404663"
         stroke="black"/>
   <text x="352"
         y="0"
         dominant-baseline="middle"
         text-anchor="end"
         font-size="10">40</text>
   <line x1="20.770750650094303"
         y1="-45.481599767725925"
         x2="207.70750650094303"
         y2="-454.8159976772593"
         stroke="black"/>
   <text x="396"
         y="0"
         dominant-baseline="middle"
         text-anchor="end"
         font-size="10">45</text>
   <line x1="42.06267664155904"
         y1="-27.032040872779913"
         x2="420.6267664155904"
         y2="-270.32040872779913"
         stroke="black"/>
   <text x="440"
         y="0"
         dominant-baseline="middle"
         text-anchor="end"
         font-size="10">50</text>
   <line x1="50"
         y1="-1.2246467991473532E-14"
         x2="500"
         y2="-1.2246467991473532E-13"
         stroke="black"/>
   <text x="484"
         y="0"
         dominant-baseline="middle"
         text-anchor="end"
         font-size="10">55</text>
   <polyline fill="none"
             stroke="black"
             stroke-width="3"
             points="420.6267664155906,270.3204087277988 207.70750650094323,454.8159976772592 -71.15741913664262,494.9107209404663 -327.4303669726425,377.8747871771292 -479.74648680724863,140.86627842071502 -479.7464868072487,-140.8662784207149 -327.4303669726426,-377.87478717712906 -71.15741913664262,-494.9107209404663 207.70750650094303,-454.8159976772593 420.6267664155904,-270.32040872779913 500,-1.2246467991473532E-13 420.6267664155905,270.3204087277989"/>
   <polyline fill="none"
             stroke="black"
             stroke-width="3"
             points="42.06267664155906,27.032040872779877 20.77075065009432,45.48159976772592 -7.1157419136642615,49.491072094046636 -32.74303669726425,37.78747871771292 -47.97464868072486,14.086627842071502 -47.97464868072487,-14.086627842071492 -32.74303669726426,-37.78747871771291 -7.1157419136642615,-49.491072094046636 20.770750650094303,-45.481599767725925 42.06267664155904,-27.032040872779913 50,-1.2246467991473532E-14 42.06267664155905,27.032040872779888"/>
   <polyline points="46.26894430571497,29.735244960057866 6.231225195028296,13.644479930317775 -0,0 -26.1944293578114,30.229982974170333 -0,0 -14.39239460421746,-4.225988352621448 -13.097214678905704,-15.114991487085163 -1.4231483827328524,-9.898214418809326 0,-0 4.206267664155904,-2.703204087277991 0,-0"
             stroke="red"
             fill="none"
             stroke-width="3"/>
   <polyline points="29.443873649091344,18.922428610945914 4.154150130018865,9.096319953545184 -0,0 -16.371518348632126,18.893739358856457 -134.32901630602962,39.442557957800204 -19.189859472289946,-5.634651136828596 -16.37151834863213,-18.893739358856454 -2.8462967654657048,-19.796428837618652 0,-0 0,-0 0,-0"
             stroke="blue"
             fill="none"
             stroke-width="3"/>
   <polyline points="29.443873649091344,18.922428610945914 6.231225195028296,13.644479930317775 -0.7115741913664262,4.949107209404663 -29.468733027537827,34.00873084594163 -81.55690275723228,23.94726733152155 -23.987324340362434,-7.043313921035745 -9.822911009179279,-11.336243615313872 -2.8462967654657048,-19.796428837618652 0,-0 12.61880299246771,-8.109612261833973 0,-0"
             stroke="green"
             fill="none"
             stroke-width="3"/>
</svg>
