<svg xmlns="http://www.w3.org/2000/svg"
     preserveAspectRatio="xMinYMin meet"
     viewBox="-800 -800 1600 1600"
     width="100%"
     height="100%">
   <text x="88"
         y="-676"
         text-anchor="middle"
         font-size="50"
         font-weight="bold">
                        Surah </text>
   <line x1="42.06267664155906"
         y1="27.032040872779877"
         x2="420.6267664155906"
         y2="270.3204087277988"
         stroke="black"/>
   <text x="44"
         y="0"
         dominant-baseline="middle"
         text-anchor="end"
         font-size="10">5</text>
   <line x1="20.77075065009432"
         y1="45.48159976772592"
         x2="207.70750650094323"
         y2="454.8159976772592"
         stroke="black"/>
   <text x="88"
         y="0"
         dominant-baseline="middle"
         text-anchor="end"
         font-size="10">10</text>
   <line x1="-7.1157419136642615"
         y1="49.491072094046636"
         x2="-71.15741913664262"
         y2="494.9107209404663"
         stroke="black"/>
   <text x="132"
         y="0"
         dominant-baseline="middle"
         text-anchor="end"
         font-size="10">15</text>
   <line x1="-32.74303669726425"
         y1="37.78747871771292"
         x2="-327.4303669726425"
         y2="377.8747871771292"
         stroke="black"/>
   <text x="176"
         y="0"
         dominant-baseline="middle"
         text-anchor="end"
         font-size="10">20</text>
   <line x1="-47.97464868072486"
         y1="14.086627842071502"
         x2="-479.74648680724863"
         y2="140.86627842071502"
         stroke="black"/>
   <text x="220"
         y="0"
         dominant-baseline="middle"
         text-anchor="end"
         font-size="10">25</text>
   <line x1="-47.97464868072487"
         y1="-14.086627842071492"
         x2="-479.7464868072487"
         y2="-140.8662784207149"
         stroke="black"/>
   <text x="264"
         y="0"
         dominant-baseline="middle"
         text-anchor="end"
         font-size="10">30</text>
   <line x1="-32.74303669726426"
         y1="-37.78747871771291"
         x2="-327.4303669726426"
         y2="-377.87478717712906"
         stroke="black"/>
   <text x="308"
         y="0"
         dominant-baseline="middle"
         text-anchor="end"
         font-size="10">35</text>
   <line x1="-7.1157419136642615"
         y1="-49.491072094046636"
         x2="-71.15741913664262"
         y2="-494.9107209404663"
         stroke="black"/>
   <text x="352"
         y="0"
         dominant-baseline="middle"
         text-anchor="end"
         font-size="10">40</text>
   <line x1="20.770750650094303"
         y1="-45.481599767725925"
         x2="207.70750650094303"
         y2="-454.8159976772593"
         stroke="black"/>
   <text x="396"
         y="0"
         dominant-baseline="middle"
         text-anchor="end"
         font-size="10">45</text>
   <line x1="42.06267664155904"
         y1="-27.032040872779913"
         x2="420.6267664155904"
         y2="-270.32040872779913"
         stroke="black"/>
   <text x="440"
         y="0"
         dominant-baseline="middle"
         text-anchor="end"
         font-size="10">50</text>
   <line x1="50"
         y1="-1.2246467991473532E-14"
         x2="500"
         y2="-1.2246467991473532E-13"
         stroke="black"/>
   <text x="484"
         y="0"
         dominant-baseline="middle"
         text-anchor="end"
         font-size="10">55</text>
   <polyline fill="none"
             stroke="black"
             stroke-width="3"
             points="420.6267664155906,270.3204087277988 207.70750650094323,454.8159976772592 -71.15741913664262,494.9107209404663 -327.4303669726425,377.8747871771292 -479.74648680724863,140.86627842071502 -479.7464868072487,-140.8662784207149 -327.4303669726426,-377.87478717712906 -71.15741913664262,-494.9107209404663 207.70750650094303,-454.8159976772593 420.6267664155904,-270.32040872779913 500,-1.2246467991473532E-13 420.6267664155905,270.3204087277989"/>
   <polyline fill="none"
             stroke="black"
             stroke-width="3"
             points="42.06267664155906,27.032040872779877 20.77075065009432,45.48159976772592 -7.1157419136642615,49.491072094046636 -32.74303669726425,37.78747871771292 -47.97464868072486,14.086627842071502 -47.97464868072487,-14.086627842071492 -32.74303669726426,-37.78747871771291 -7.1157419136642615,-49.491072094046636 20.770750650094303,-45.481599767725925 42.06267664155904,-27.032040872779913 50,-1.2246467991473532E-14 42.06267664155905,27.032040872779888"/>
   <polyline points="58.88774729818269,37.84485722189183 4.154150130018865,9.096319953545184 -3.557870956832131,24.745536047023315 -32.74303669726425,37.787478717712915 -0,0 -9.594929736144973,-2.817325568414298 -13.097214678905704,-15.114991487085163 -7.115741913664262,-49.49107209404663 6.231225195028291,-13.644479930317779 4.206267664155904,-2.703204087277991 0,-0"
             stroke="red"
             fill="none"
             stroke-width="3"/>
   <polyline points="42.06267664155906,27.03204087277988 4.154150130018865,9.096319953545184 -3.557870956832131,24.745536047023315 -16.371518348632126,18.893739358856457 -287.8478920843492,84.51976705242902 -43.17718381265238,-12.677965057864341 -22.920125688084983,-26.451235102399036 -6.404167722297835,-44.54196488464197 4.15415013001886,-9.096319953545185 0,-0 30,-7.347880794884118E-15"
             stroke="blue"
             fill="none"
             stroke-width="3"/>
   <polyline points="63.09401496233859,40.54806130916981 2.0770750650094323,4.548159976772592 -4.269445148198557,29.69464325642798 -39.2916440367171,45.344974461255504 -259.0631028759143,76.06779034718612 -23.987324340362434,-7.043313921035745 -16.37151834863213,-18.893739358856454 -7.827316105030687,-54.440179303451295 6.231225195028291,-13.644479930317779 4.206267664155904,-2.703204087277991 0,-0"
             stroke="green"
             fill="none"
             stroke-width="3"/>
</svg>
