<svg xmlns="http://www.w3.org/2000/svg">
   <polyline points="360,360 196.36363636363637,196.36363636363637 0,0 1047.2727272727273,1047.2727272727273 0,0 589.0909090909091,589.0909090909091 916.3636363636364,916.3636363636364 523.6363636363636,523.6363636363636 0,0 327.27272727272725,327.27272727272725 0,0"
             stroke="red"/>
   <polyline points="229.0909090909091,229.0909090909091 130.9090909090909,130.9090909090909 0,0 654.5454545454545,654.5454545454545 4581.818181818182,4581.818181818182 785.4545454545455,785.4545454545455 1145.4545454545455,1145.4545454545455 1047.2727272727273,1047.2727272727273 0,0 0,0 0,0"
             stroke="blue"/>
   <polyline points="229.0909090909091,229.0909090909091 196.36363636363637,196.36363636363637 98.18181818181819,98.18181818181819 1178.1818181818182,1178.1818181818182 2781.8181818181815,2781.8181818181815 981.8181818181819,981.8181818181819 687.2727272727273,687.2727272727273 1047.2727272727273,1047.2727272727273 0,0 981.8181818181818,981.8181818181818 0,0"
             stroke="green"/>
</svg>
