<svg xmlns="http://www.w3.org/2000/svg">
   <polyline points="490.9090909090909,490.9090909090909 65.45454545454545,65.45454545454545 589.0909090909091,589.0909090909091 1570.909090909091,1570.909090909091 8836.363636363636,8836.363636363636 981.8181818181819,981.8181818181819 1145.4545454545455,1145.4545454545455 2880,2880 883.6363636363637,883.6363636363637 327.27272727272725,327.27272727272725 0,0"
             stroke="red"/>
   <polyline points="327.27272727272725,327.27272727272725 130.9090909090909,130.9090909090909 490.90909090909093,490.90909090909093 654.5454545454545,654.5454545454545 9818.181818181818,9818.181818181818 1767.2727272727275,1767.2727272727275 1603.6363636363637,1603.6363636363637 2356.3636363636365,2356.3636363636365 589.0909090909091,589.0909090909091 0,0 2160,2160"
             stroke="blue"/>
   <polyline points="458.1818181818182,458.1818181818182 130.9090909090909,130.9090909090909 490.90909090909093,490.90909090909093 1309.090909090909,1309.090909090909 0,0 392.72727272727275,392.72727272727275 916.3636363636364,916.3636363636364 2618.181818181818,2618.181818181818 883.6363636363637,883.6363636363637 327.27272727272725,327.27272727272725 0,0"
             stroke="green"/>
</svg>
